<svg width="481" height="668" viewBox="0 0 481 668" fill="none" xmlns="http://www.w3.org/2000/svg">
<path d="M129 205L240.717 269.5V398.5L129 463L17.2827 398.5V269.5L129 205Z" stroke="black" stroke-width="20"/>
<path d="M352 205L463.717 269.5V398.5L352 463L240.283 398.5V269.5L352 205Z" stroke="black" stroke-width="20"/>
<path d="M240 398L351.717 462.5V591.5L240 656L128.283 591.5V462.5L240 398Z" stroke="black" stroke-width="20"/>
<path d="M240 12L351.717 76.5V205.5L240 270L128.283 205.5V76.5L240 12Z" stroke="black" stroke-width="20"/>
<path d="M122.411 290.855C123.625 288.55 122.71 285.718 120.381 284.527C118.053 283.336 115.147 284.234 113.933 286.519L95.4045 321.5H78.3686C74.846 321.5 72 324.293 72 327.75C72 331.207 74.846 334 78.3686 334L88.6976 374.527C90.1106 380.094 95.2055 384 101.057 384H157.578C163.429 384 168.524 380.094 169.937 374.527L180.266 334C183.788 334 186.634 331.207 186.634 327.75C186.634 324.293 183.788 321.5 180.266 321.5H163.23L144.701 286.519C143.487 284.234 140.601 283.336 138.253 284.527C135.905 285.718 135.009 288.55 136.223 290.855L152.463 321.5H106.171L122.411 290.855ZM110.211 343.375V362.125C110.211 363.844 108.778 365.25 107.027 365.25C105.276 365.25 103.843 363.844 103.843 362.125V343.375C103.843 341.656 105.276 340.25 107.027 340.25C108.778 340.25 110.211 341.656 110.211 343.375ZM129.317 340.25C131.068 340.25 132.501 341.656 132.501 343.375V362.125C132.501 363.844 131.068 365.25 129.317 365.25C127.566 365.25 126.133 363.844 126.133 362.125V343.375C126.133 341.656 127.566 340.25 129.317 340.25ZM154.791 343.375V362.125C154.791 363.844 153.358 365.25 151.607 365.25C149.856 365.25 148.423 363.844 148.423 362.125V343.375C148.423 341.656 149.856 340.25 151.607 340.25C153.358 340.25 154.791 341.656 154.791 343.375Z" fill="black"/>
<path d="M327.048 290.25V296.5H317.524C312.266 296.5 308 300.699 308 305.875V315.25H396.889V305.875C396.889 300.699 392.623 296.5 387.365 296.5H377.841V290.25C377.841 286.793 375.004 284 371.492 284C367.98 284 365.143 286.793 365.143 290.25V296.5H339.746V290.25C339.746 286.793 336.909 284 333.397 284C329.885 284 327.048 286.793 327.048 290.25ZM396.889 321.5H308V374.625C308 379.801 312.266 384 317.524 384H387.365C392.623 384 396.889 379.801 396.889 374.625V321.5Z" fill="black"/>
<path d="M175 494.967V564.123C175 568.141 177.267 571.936 181.059 573.342C200.584 580.597 220.109 575.642 239.634 570.686C257.543 566.154 275.452 561.6 293.339 566.467C298.501 567.873 304.268 564.346 304.268 559.011V489.877C304.268 485.859 302.002 482.064 298.209 480.658C278.684 473.403 259.159 478.358 239.634 483.314C221.725 487.846 203.816 492.377 185.929 487.511C180.745 486.105 175 489.632 175 494.967ZM203.726 562.717H189.363V548.43C197.285 548.43 203.726 554.837 203.726 562.717ZM189.363 519.857V505.57H203.726C203.726 513.45 197.285 519.857 189.363 519.857ZM275.542 548.43C275.542 540.55 281.983 534.143 289.905 534.143V548.43H275.542ZM289.905 505.57C281.983 505.57 275.542 499.163 275.542 491.283H289.905V505.57ZM261.179 527C261.179 540.818 251.529 552.002 239.634 552.002C227.74 552.002 218.089 540.818 218.089 527C218.089 513.182 227.74 501.998 239.634 501.998C251.529 501.998 261.179 513.182 261.179 527ZM231.555 516.285C231.555 518.45 233.103 520.236 235.146 520.66V531.465H234.248C231.779 531.465 229.759 533.474 229.759 535.929C229.759 538.385 231.779 540.394 234.248 540.394H239.634H245.02C247.489 540.394 249.509 538.385 249.509 535.929C249.509 533.474 247.489 531.465 245.02 531.465H244.123V516.285C244.123 513.83 242.103 511.82 239.634 511.82H236.043C233.575 511.82 231.555 513.83 231.555 516.285Z" fill="black"/>
<g filter="url(#filter0_d_18_72)">
<path d="M174.255 144.863C170.242 144.863 167 145.864 167 147.104V173.994C167 175.234 170.242 176.235 174.255 176.235C178.268 176.235 181.51 175.234 181.51 173.994V161.27L200.826 149.345H181.51V147.104C181.51 145.864 178.268 144.863 174.255 144.863ZM258.865 149.345H241.998L240.773 150.094L220.233 162.79H237.078L238.302 162.041L258.865 149.345ZM249.252 162.79H266.097L267.322 162.041L287.885 149.345H271.017L269.793 150.094L249.252 162.79ZM212.978 149.345L211.754 150.094L191.213 162.79H208.058L209.282 162.041L229.846 149.345H212.978ZM278.272 162.79H297.588V173.994C297.588 175.234 300.83 176.235 304.843 176.235C308.856 176.235 312.098 175.234 312.098 173.994V147.104C312.098 145.864 308.856 144.863 304.843 144.863C300.83 144.863 297.588 145.864 297.588 147.104V150.864L278.272 162.79Z" fill="black"/>
</g>
<path d="M283.964 137.02L298.373 111.881L283.964 88H255.918L241.51 111.881L255.918 137.02H283.964Z" fill="black"/>
<line x1="266.079" y1="137.02" x2="266.079" y2="188" stroke="black" stroke-width="6"/>
<defs>
<filter id="filter0_d_18_72" x="163" y="143.863" width="153.098" height="39.3726" filterUnits="userSpaceOnUse" color-interpolation-filters="sRGB">
<feFlood flood-opacity="0" result="BackgroundImageFix"/>
<feColorMatrix in="SourceAlpha" type="matrix" values="0 0 0 0 0 0 0 0 0 0 0 0 0 0 0 0 0 0 127 0" result="hardAlpha"/>
<feOffset dy="3"/>
<feGaussianBlur stdDeviation="2"/>
<feComposite in2="hardAlpha" operator="out"/>
<feColorMatrix type="matrix" values="0 0 0 0 0 0 0 0 0 0 0 0 0 0 0 0 0 0 0.1 0"/>
<feBlend mode="normal" in2="BackgroundImageFix" result="effect1_dropShadow_18_72"/>
<feBlend mode="normal" in="SourceGraphic" in2="effect1_dropShadow_18_72" result="shape"/>
</filter>
</defs>
</svg>
