<svg width="92" height="105" viewBox="0 0 92 105" fill="none" xmlns="http://www.w3.org/2000/svg">
<path d="M56.4857 103L51.3231 93.631H40.7113L35.8356 84.6444H25.1281L19.87 75.4665H9.35373L4 66.5755L9.35373 57.5889L4 48.4111L9.35373 39.2333L4 30.3423L9.35373 20.9732H19.87L25.1281 11.9866H35.8356L40.7113 3H51.3231L56.4857 11.9866H66.9063L72.26 20.9732H82.4895L87.8432 30.3423L82.4895 39.2333L87.8432 48.4111L82.4895 57.5889L87.8432 66.5755L82.4895 75.4665H72.26L66.9063 84.6444H56.4857L51.3231 75.4665H40.7113L35.8356 66.5755H25.1281L19.87 57.5889L25.1281 48.4111L19.87 39.2333L25.1281 30.3423H35.8356L40.7113 20.9732H51.3231L56.4857 30.3423H66.9063L72.26 39.2333L66.9063 48.4111L72.26 57.5889L66.9063 66.5755H56.4857L51.3231 57.5889H40.7113L35.8356 48.4111L40.7113 39.2333H51.3231L56.4857 48.4111" stroke="#AD0000" stroke-width="6"/>
</svg>
